<?xml version="1.0" encoding="UTF-8"?>
<svg width="800" height="400" viewBox="0 0 800 400" fill="none" xmlns="http://www.w3.org/2000/svg">
    <!-- Background -->
    <rect width="800" height="400" rx="20" fill="#4ade80"/>
    
    <!-- Smart City Elements -->
    <path d="M100 300 L200 300 L200 200 L150 150 L100 200 Z" fill="#ffffff" opacity="0.9"/>
    <path d="M250 300 L350 300 L350 150 L300 100 L250 150 Z" fill="#ffffff" opacity="0.8"/>
    <path d="M400 300 L500 300 L500 180 L450 130 L400 180 Z" fill="#ffffff" opacity="0.7"/>
    
    <!-- Smart Bins -->
    <rect x="150" y="250" width="40" height="50" rx="5" fill="#22c55e"/>
    <rect x="300" y="250" width="40" height="50" rx="5" fill="#22c55e"/>
    <rect x="450" y="250" width="40" height="50" rx="5" fill="#22c55e"/>
    
    <!-- Connection Lines -->
    <path d="M170 230 Q250 150 330 230" stroke="#ffffff" stroke-width="2" fill="none"/>
    <path d="M330 230 Q400 150 470 230" stroke="#ffffff" stroke-width="2" fill="none"/>
    
    <!-- IoT Signals -->
    <circle cx="170" cy="230" r="5" fill="#ffffff"/>
    <circle cx="330" cy="230" r="5" fill="#ffffff"/>
    <circle cx="470" cy="230" r="5" fill="#ffffff"/>
    
    <!-- Decorative Elements -->
    <circle cx="600" cy="150" r="30" fill="#ffffff" opacity="0.2"/>
    <circle cx="650" cy="200" r="20" fill="#ffffff" opacity="0.15"/>
    <circle cx="700" cy="150" r="25" fill="#ffffff" opacity="0.1"/>
</svg>