<?xml version="1.0" encoding="UTF-8"?>
<svg width="800" height="600" viewBox="0 0 800 600" xmlns="http://www.w3.org/2000/svg">
  <!-- Lamps -->
  <g id="lamps">
    <path d="M300 50 L300 80 Q300 100 320 100 L340 100 Q360 100 360 80 L360 50" fill="#2B2B2B"/>
    <path d="M400 50 L400 80 Q400 100 420 100 L440 100 Q460 100 460 80 L460 50" fill="#2B2B2B"/>
    <path d="M500 50 L500 80 Q500 100 520 100 L540 100 Q560 100 560 80 L560 50" fill="#2B2B2B"/>
    <circle cx="330" cy="120" r="10" fill="#FFF9C4" opacity="0.8"/>
    <circle cx="430" cy="120" r="10" fill="#FFF9C4" opacity="0.8"/>
    <circle cx="530" cy="120" r="10" fill="#FFF9C4" opacity="0.8"/>
  </g>

  <!-- Left Plant -->
  <g id="left-plant">
    <path d="M120 450 L140 380 Q145 370 150 380 L170 450" fill="#2E7D32"/>
    <path d="M90 450 L110 370 Q115 360 120 370 L140 450" fill="#2E7D32"/>
    <rect x="80" y="450" width="100" height="40" fill="#795548" rx="5"/>
  </g>

  <!-- Right Plant -->
  <g id="right-plant">
    <path d="M680 450 L700 380 Q705 370 710 380 L730 450" fill="#2E7D32"/>
    <path d="M710 450 L730 370 Q735 360 740 370 L760 450" fill="#2E7D32"/>
    <rect x="670" y="450" width="100" height="40" fill="#795548" rx="5"/>
  </g>

  <!-- Person 1 (Standing with tablet) -->
  <g id="person1">
    <circle cx="250" cy="280" r="35" fill="#FFB74D"/> <!-- Head -->
    <path d="M220 320 Q250 310 280 320 L270 450 Q245 460 230 450 Z" fill="#FFE0B2"/> <!-- Body -->
    <rect x="240" y="350" width="50" height="70" fill="#FFA000" rx="5"/> <!-- Yellow Top -->
    <path d="M230 420 L250 520" fill="#5C6BC0" stroke="#5C6BC0" stroke-width="30"/> <!-- Left Leg -->
    <path d="M270 420 L250 520" fill="#5C6BC0" stroke="#5C6BC0" stroke-width="30"/> <!-- Right Leg -->
    <rect x="235" y="330" width="40" height="60" fill="#263238" rx="5"/> <!-- Tablet -->
  </g>

  <!-- Person 2 (Sitting) -->
  <g id="person2">
    <circle cx="400" cy="300" r="35" fill="#4527A0"/> <!-- Head -->
    <rect x="370" y="335" width="60" height="100" fill="#7E57C2" rx="10"/> <!-- Purple Shirt -->
    <path d="M370 435 L430 435 L420 520 L380 520 Z" fill="#5C6BC0"/> <!-- Pants -->
    <rect x="380" y="350" width="70" height="45" fill="#263238" rx="5"/> <!-- Laptop -->
    <circle cx="390" cy="290" r="8" fill="#000000"/> <!-- Glasses -->
    <circle cx="410" cy="290" r="8" fill="#000000"/> <!-- Glasses -->
  </g>

  <!-- Person 3 (Standing) -->
  <g id="person3">
    <circle cx="550" cy="280" r="35" fill="#263238"/> <!-- Head -->
    <path d="M520 320 Q550 310 580 320 L570 450 Q545 460 530 450 Z" fill="#2E7D32"/> <!-- Green Jacket -->
    <path d="M530 420 L550 520" fill="#5C6BC0" stroke="#5C6BC0" stroke-width="30"/> <!-- Left Leg -->
    <path d="M570 420 L550 520" fill="#5C6BC0" stroke="#5C6BC0" stroke-width="30"/> <!-- Right Leg -->
    <path d="M535 290 Q550 280 565 290" fill="none" stroke="#263238" stroke-width="5"/> <!-- Beard -->
  </g>

  <!-- Charts/Stats -->
  <g id="charts" transform="translate(280,220)">
    <path d="M0 0 L20 -20 L40 -10 L60 -30" stroke="#2196F3" stroke-width="3" fill="none"/>
    <circle cx="20" cy="-20" r="4" fill="#2196F3"/>
    <circle cx="40" cy="-10" r="4" fill="#2196F3"/>
    <circle cx="60" cy="-30" r="4" fill="#2196F3"/>
  </g>

  <!-- Gear Icon -->
  <g id="gear" transform="translate(200,180)">
    <circle cx="0" cy="0" r="15" stroke="#9E9E9E" stroke-width="3" fill="none"/>
    <path d="M-15 0 L15 0 M0 -15 L0 15" stroke="#9E9E9E" stroke-width="3"/>
  </g>
</svg>